# xmcd CD database file
#
# Track frame offsets:
#	150
#	14520
#	27222
#	39742
#	52445
#	66550
#	79157
#	91332
#	103070
#	116147
#	128112
#	140895
#	155820
#	170030
#	183190
#	198227
#	210970
#	222822
#
# Disc length: 3162 seconds
#
# Revision: 0
# Processed by: cddbd v1.5.1PL2 Copyright (c) Steve Scherf et al.
# Submitted via: CDex 1.51
#
DISCID=140c5812
DTITLE=Various Artist - West Coast Jive
DYEAR=1900
DGENRE=Jazz
TTITLE0=The G Man Got The T Man
TTITLE1=Hd Blues
TTITLE2=Let's Go Down The Road
TTITLE3=Somebody Changed The Lock On My Door
TTITLE4=Without You
TTITLE5=You Gotta Give It Up
TTITLE6=Playful Baby
TTITLE7=When You're Alone
TTITLE8=Get Your Kicks
TTITLE9=Let's Get Together
TTITLE10=Wynonie's Blues
TTITLE11=I'm So Lonesome
TTITLE12=Give Me My Money Back
TTITLE13=Not Worth A Dime
TTITLE14=Hour After Hour
TTITLE15=Now Or Never
TTITLE16=Don't Slam The Door
TTITLE17=Miss Jiveola Brown
EXTD=
EXTT0=
EXTT1=
EXTT2=
EXTT3=
EXTT4=
EXTT5=
EXTT6=
EXTT7=
EXTT8=
EXTT9=
EXTT10=
EXTT11=
EXTT12=
EXTT13=
EXTT14=
EXTT15=
EXTT16=
EXTT17=
PLAYORDER=
